<svg xmlns="http://www.w3.org/2000/svg" viewBox="0 0 557.52 512.71"><defs><style>.cls-1{fill:#f5cc6c;}.cls-2{fill:#ff2c68;}.cls-3{fill:#d0d0d0;}.cls-4{fill:#d3976e;}.cls-5{fill:#cea9f7;}.cls-6{fill:#ffdd7d;}.cls-7{fill:#a80038;}.cls-8{fill:#ffa4a4;}.cls-9{fill:#42ade2;}.cls-10{fill:#428bc1;}.cls-11{fill:#ff8b00;}.cls-12{fill:#fff033;}.cls-13{fill:#9fe4ff;}</style></defs><title>Asset 4</title><g id="Layer_2" data-name="Layer 2"><g id="Layer_1-2" data-name="Layer 1"><circle class="cls-1" cx="281.03" cy="211" r="211"/><path class="cls-2" d="M28.64,339.12,21.35,322.7,4.52,330.18,0,320l42.23-18.75,12.55,28.25L46.92,333l-8-18.07-9.71,4.32,7.29,16.41Z"/><path class="cls-2" d="M50.21,372.59l-9.34-14.83-9.35,5.89,11,17.51-7.26,4.57-17-26.94,39.09-24.63,17,27-7.28,4.58L56.1,348.17l-8.25,5.2,9.34,14.82Z"/><path class="cls-2" d="M56.27,398.12l12.57,14.77-6.53,5.56L42.53,395.19l35.19-29.94,7.22,8.48Z"/><path class="cls-2" d="M79.06,434.26,71,426.65,102.6,393l8.1,7.6Z"/><path class="cls-2" d="M104.88,444.48l17.8,13.09-5.08,6.9-29-21.32,3.47-4.73,36.55-12.52-17.85-13.13,5.1-6.93,28.92,21.27-3.39,4.6Z"/><path class="cls-2" d="M207.68,487.54a16.85,16.85,0,0,1-5.21,7.23,15.73,15.73,0,0,1-8.17,3.28,22.78,22.78,0,0,1-10-1.24q-8.62-2.93-11.68-10.24t.44-17.55l.73-2.16a27.86,27.86,0,0,1,6.07-10.49,17.88,17.88,0,0,1,9-5.27,19,19,0,0,1,10.63.68q8,2.72,11.38,8.54t1.57,13.43L202,470.17q1.23-4-.07-6.42c-.86-1.59-2.59-2.83-5.17-3.7a6.62,6.62,0,0,0-6.77,1q-2.83,2.33-5.12,8.75l-1.06,3.1q-2.37,7-1.64,10.6t5,5.06a8.5,8.5,0,0,0,6.14.18c1.67-.71,3-2.29,3.89-4.74Z"/><path class="cls-2" d="M258.75,465.48,254,495.35a17.31,17.31,0,0,1-3.55,8.45,14.21,14.21,0,0,1-7.1,4.68,22.18,22.18,0,0,1-9.87.43q-8.34-1.32-12.45-6.4t-3-12.63l4.76-30.09,11.07,1.75-4.8,30.31q-1,7.53,5.78,8.6a6.83,6.83,0,0,0,5.47-1.07c1.36-1.06,2.27-3,2.72-5.83l4.72-29.81Z"/><path class="cls-2" d="M280.22,466l11.49,31.75,9.09-32.51,14.66-.54,1.69,46.18-11.16.41-.4-10.78.27-22.12-10,33.27-7.36.27-12.4-32.48L278,501.52l.39,10.78-11.13.41-1.69-46.18Z"/><path class="cls-2" d="M340.15,490.27l3.58,15.26-10.84,2.55-10.56-45,17.95-4.21a21.54,21.54,0,0,1,9.58-.25,14.72,14.72,0,0,1,7.41,4,15.11,15.11,0,0,1,4.05,7.44,13.39,13.39,0,0,1-2.24,11.63q-3.79,5-12,7Zm-2-8.38,7.1-1.66a6.94,6.94,0,0,0,4.44-2.71,6,6,0,0,0,.6-4.83,7.39,7.39,0,0,0-2.88-4.64,6.16,6.16,0,0,0-5.08-.83l-7.23,1.7Z"/><path class="cls-2" d="M388.28,483.16l18-7.3,3.22,7.93-28.28,11.5-17.4-42.81,10.32-4.2Z"/><path class="cls-2" d="M435.1,446.91,420,455.77l5.58,9.53,17.86-10.46,4.33,7.39-27.47,16.09-23.36-39.87,27.53-16.12,4.34,7.42-17.91,10.49,4.93,8.41,15.12-8.86Z"/><path class="cls-2" d="M495.73,393.42l-12,12.78,8,7.56L506,398.67l6.25,5.87-21.8,23.2-33.68-31.63,21.84-23.25,6.27,5.89-14.21,15.12,7.1,6.67,12-12.76Z"/><path class="cls-2" d="M519.9,395l-38.16-26.06,8.39-12.29a22,22,0,0,1,8.5-7.53,19.52,19.52,0,0,1,10.78-1.88,23.7,23.7,0,0,1,10.94,4.1l1.75,1.2a23.85,23.85,0,0,1,7.89,8.63,19.61,19.61,0,0,1,2.24,10.68,21.45,21.45,0,0,1-3.76,10.6Zm-24.78-30.41,24,16.38,2.19-3.2a8.67,8.67,0,0,0,1.33-8q-1.36-4-6.92-7.84l-1.65-1.13q-5.53-3.78-9.79-3.57a8.83,8.83,0,0,0-7,4.27Z"/><path class="cls-2" d="M520.27,300.74l27.49,12.62a17.43,17.43,0,0,1,7.17,5.71,14.14,14.14,0,0,1,2.58,8.1,21.94,21.94,0,0,1-2.25,9.62q-3.53,7.66-9.53,10.26t-13-.51l-27.69-12.72,4.68-10.18,27.89,12.81q7,3,9.83-3.24a6.78,6.78,0,0,0,.46-5.55q-1-2.42-4.88-4.2l-27.43-12.6Z"/><path class="cls-3" d="M282.8,301.7c-78.05,0-141.32,27.82-141.32,62.15a27.94,27.94,0,0,0,.65,6A211,211,0,0,0,424,366.15c.07-.77.11-1.53.11-2.3C424.12,329.52,360.85,301.7,282.8,301.7Z"/><path class="cls-4" d="M168.33,245.52v106c0,26.59,51.25,48.15,114.47,48.15s114.46-21.56,114.46-48.15v-106Z"/><path class="cls-5" d="M168.34,268.23a.49.49,0,0,0,0,.12l.06-.12Z"/><path class="cls-5" d="M397.26,268.23h0v0Z"/><path class="cls-6" d="M397.26,276.48c-.51,18.89-72.49,39.8-114.46,39.8s-114-20.91-114.47-39.8v28.86c58.92,42.18,170,42.18,228.93,0V276.48Z"/><path class="cls-6" d="M397.26,321.46c-.52,18.9-72.49,39.79-114.46,39.79s-114-20.9-114.47-39.79v28.86c58.85,42.18,170.07,42.18,228.93,0V321.46Z"/><path class="cls-7" d="M168.33,245.52V325c0,4.3,4,7.79,8.87,7.79s8.88-3.49,8.88-7.79V306.87c0-5.72,5.27-10.36,11.78-10.36s11.79,4.64,11.79,10.36v22.4c0,6.65,6.13,12.05,13.7,12.05s13.7-5.4,13.7-12.05V306.38c0-6,5.52-10.84,12.33-10.84s12.34,4.85,12.34,10.84V321c0,3.33,3.06,6,6.85,6s6.85-2.7,6.85-6V309.39c0-4.32,4-7.83,8.91-7.83s8.9,3.51,8.9,7.83v19.88c0,6.65,6.14,12.05,13.71,12.05s13.71-5.4,13.71-12.05V307c0-5.65,5.21-10.24,11.64-10.24S344,301.34,344,307v16.26c0,3.33,3.06,6,6.85,6s6.85-2.69,6.85-6V311.87c0-3,2.73-5.37,6.1-5.37s6.11,2.4,6.11,5.37v17.4c0,6.65,6.12,12.05,13.7,12.05s13.7-5.4,13.7-12.05V245.84Z"/><ellipse class="cls-2" cx="282.8" cy="245.52" rx="114.47" ry="48.14"/><path class="cls-8" d="M199.8,240.47c-.62-30.81,135.25-34.85,135.8-7.67.41,20.31-86.27,21.39-86.6,5.12-.24-11.51,53.57-11.72,53.74-3.13S259,244.46,269.06,234c-17.44,13,38,13.88,37.71,1.64-.3-14.27-65.69-12.06-65.39,2.56.44,21.88,100.74,19.44,100.25-5.07-.66-31.9-150.54-30.82-149.76,7.6.85,41.9,147.21,57.17,194.59,3.74C322,292.75,200.39,269.28,199.8,240.47Z"/><path class="cls-9" d="M187.6,183.27v50.86c0,7.27,15.07,6,15.07,0V183.27C202.67,176,187.6,176,187.6,183.27Z"/><polygon class="cls-10" points="202.67 188.07 187.6 195.8 187.6 204.83 202.67 197.09 202.67 188.07"/><polygon class="cls-10" points="187.6 220.31 187.6 228.88 202.67 221.13 202.67 212.57 187.6 220.31"/><path class="cls-11" d="M203.19,171.71c0,11.59-15.59,11.59-15.59,0,0-3.83,7.8-16.19,7.8-16.19S203.19,167.87,203.19,171.71Z"/><path class="cls-12" d="M199.29,175.4c0,6.63-7.79,6.63-7.79,0,0-1.91,3.9-8.09,3.9-8.09S199.29,173.49,199.29,175.4Z"/><path class="cls-9" d="M276,162.2v44.51c0,6.95,13.19,5.82,13.19,0V162.2C289.17,155.25,276,155.25,276,162.2Z"/><polygon class="cls-10" points="289.17 166.4 275.98 173.17 275.98 181.07 289.17 174.29 289.17 166.4"/><polygon class="cls-10" points="275.98 194.62 275.98 202.11 289.17 195.34 289.17 187.85 275.98 194.62"/><path class="cls-11" d="M289.61,152.09c0,10.7-13.64,10.7-13.64,0,0-3.36,6.83-14.17,6.83-14.17S289.61,148.73,289.61,152.09Z"/><path class="cls-12" d="M286.21,155.32c0,6.38-6.82,6.38-6.82,0,0-1.67,3.41-7.08,3.41-7.08S286.21,153.65,286.21,155.32Z"/><path class="cls-9" d="M362.4,183.2v50.86c0,7.27,15.06,6,15.06,0V183.2C377.46,175.94,362.4,175.94,362.4,183.2Z"/><polygon class="cls-10" points="377.46 188 362.4 195.74 362.4 204.76 377.46 197.02 377.46 188"/><polygon class="cls-10" points="362.4 220.25 362.4 228.81 377.46 221.07 377.46 212.5 362.4 220.25"/><path class="cls-11" d="M378,171.64c0,11.66-15.58,11.66-15.58,0,0-3.83,7.79-16.19,7.79-16.19S378,167.81,378,171.64Z"/><path class="cls-12" d="M374.09,175.34c0,6.63-7.79,6.63-7.79,0,0-1.92,3.9-8.1,3.9-8.1S374.09,173.42,374.09,175.34Z"/><path class="cls-13" d="M226.32,214.85v61.51c0,7.79,18.21,6.24,18.21,0V214.85C244.53,207.06,226.32,207.06,226.32,214.85Z"/><polygon class="cls-9" points="244.53 220.66 226.32 230.01 226.32 240.93 244.53 231.56 244.53 220.66"/><polygon class="cls-9" points="226.32 259.65 226.32 270 244.53 260.64 244.53 250.29 226.32 259.65"/><path class="cls-11" d="M245.16,200.88c0,13-18.84,13-18.84,0,0-4.63,9.43-19.57,9.43-19.57S245.16,196.25,245.16,200.88Z"/><path class="cls-12" d="M240.46,205.35c0,7-9.42,7-9.42,0,0-2.31,4.71-9.79,4.71-9.79S240.46,203,240.46,205.35Z"/><path class="cls-13" d="M320.63,214.72v61.51c0,7.8,18.22,6.24,18.22,0V214.72C338.85,206.93,320.63,206.93,320.63,214.72Z"/><polygon class="cls-9" points="338.85 220.52 320.63 229.89 320.63 240.8 338.85 231.43 338.85 220.52"/><polygon class="cls-9" points="320.63 259.52 320.63 269.87 338.85 260.5 338.85 250.15 320.63 259.52"/><path class="cls-11" d="M339.47,200.75c0,12.88-18.84,12.88-18.84,0,0-4.63,9.42-19.57,9.42-19.57S339.47,196.12,339.47,200.75Z"/><path class="cls-12" d="M334.77,205.22c0,7-9.43,7-9.43,0,0-2.32,4.71-9.78,4.71-9.78S334.77,202.9,334.77,205.22Z"/></g></g></svg>