<svg xmlns="http://www.w3.org/2000/svg" viewBox="0 0 145.85 159.76"><defs><style>.cls-1,.cls-2,.cls-4{fill:none;stroke:#312915;}.cls-1,.cls-2{stroke-miterlimit:10;}.cls-1{stroke-width:5.32px;}.cls-2{stroke-width:5.1px;}.cls-3{fill:#312915;}.cls-4{stroke-linecap:round;stroke-linejoin:round;stroke-width:3.65px;}</style></defs><title>Asset 2</title><g id="Layer_2" data-name="Layer 2"><g id="Layer_1-2" data-name="Layer 1"><path class="cls-1" d="M115.64,16.65v8a8.27,8.27,0,0,1-16.54,0V14.1H46.75V24.6a8.26,8.26,0,0,1-8.27,8.26h0a8.26,8.26,0,0,1-8.27-8.26v-8A42,42,0,0,0,2.66,56.1v59a42,42,0,0,0,42,42h56.53a42,42,0,0,0,42-42v-59A42,42,0,0,0,115.64,16.65Z"/><rect class="cls-2" x="30.21" y="2.55" width="16.53" height="30.31" rx="8.27"/><rect class="cls-2" x="99.1" y="2.55" width="16.53" height="30.31" rx="8.27"/><polygon class="cls-2" points="140.81 49.31 4.82 49.31 2.66 49.29 143.19 49.29 140.81 49.31"/><circle class="cls-3" cx="118.39" cy="71.33" r="5.51"/><circle class="cls-3" cx="30.44" cy="96.13" r="5.51"/><circle class="cls-3" cx="60.14" cy="96.13" r="5.51"/><circle class="cls-3" cx="88.92" cy="96.13" r="5.51"/><circle class="cls-3" cx="118.39" cy="96.13" r="5.51"/><circle class="cls-3" cx="30.44" cy="120.93" r="5.51"/><circle class="cls-3" cx="60.14" cy="120.93" r="5.51"/><circle class="cls-3" cx="88.92" cy="120.93" r="5.51"/><circle class="cls-3" cx="118.39" cy="120.93" r="5.51"/><line class="cls-4" x1="24.24" y1="65.82" x2="36.64" y2="78.22"/><line class="cls-4" x1="24.24" y1="78.22" x2="36.64" y2="65.82"/><line class="cls-4" x1="53.94" y1="65.82" x2="66.34" y2="78.22"/><line class="cls-4" x1="53.94" y1="78.22" x2="66.34" y2="65.82"/><line class="cls-4" x1="82.72" y1="65.82" x2="95.12" y2="78.22"/><line class="cls-4" x1="82.72" y1="78.22" x2="95.12" y2="65.82"/></g></g></svg>