<svg xmlns="http://www.w3.org/2000/svg" viewBox="0 0 149.96 164.31"><defs><style>.cls-1,.cls-2{fill:none;stroke:#312915;stroke-miterlimit:10;}.cls-1{stroke-width:5.32px;}.cls-2{stroke-width:5.1px;}.cls-3{fill:#312915;}</style></defs><title>Asset 1</title><g id="Layer_2" data-name="Layer 2"><g id="Layer_1-2" data-name="Layer 1"><path class="cls-1" d="M118.94,16.74v8.5a8.51,8.51,0,1,1-17,0V14.46H48V25.24a8.51,8.51,0,0,1-8.51,8.51h0A8.51,8.51,0,0,1,31,25.24v-8.5A42,42,0,0,0,2.66,56.46v63.19a42,42,0,0,0,42,42H105.3a42,42,0,0,0,42-42V56.46A42,42,0,0,0,118.94,16.74Z"/><rect class="cls-2" x="31.02" y="2.55" width="17.02" height="31.2" rx="8.51"/><rect class="cls-2" x="101.92" y="2.55" width="17.02" height="31.2" rx="8.51"/><polygon class="cls-2" points="144.49 50.52 4.49 50.52 2.66 50.49 147.3 50.49 144.49 50.52"/><circle class="cls-3" cx="31.02" cy="73.18" r="5.67"/><circle class="cls-3" cx="61.27" cy="73.18" r="5.67"/><circle class="cls-3" cx="91.52" cy="73.18" r="5.67"/><circle class="cls-3" cx="121.78" cy="73.18" r="5.67"/><circle class="cls-3" cx="31.02" cy="98.71" r="5.67"/><circle class="cls-3" cx="61.27" cy="98.71" r="5.67"/><circle class="cls-3" cx="91.52" cy="124.23" r="5.67"/><circle class="cls-3" cx="121.78" cy="124.23" r="5.67"/><path class="cls-3" d="M65.05,112.89H2.66L6,135.58H65.05a11.35,11.35,0,1,0,0-22.69Zm-34,17a5.68,5.68,0,1,1,5.67-5.68A5.67,5.67,0,0,1,31,129.91Zm30.25,0a5.68,5.68,0,1,1,5.67-5.68A5.67,5.67,0,0,1,61.27,129.91Z"/><path class="cls-3" d="M145,87.36H87.74a11.35,11.35,0,0,0,0,22.69H145a2.32,2.32,0,0,0,2.32-2.32v-18A2.32,2.32,0,0,0,145,87.36Zm-53.46,17a5.67,5.67,0,1,1,5.68-5.67A5.67,5.67,0,0,1,91.52,104.38Zm30.26,0a5.67,5.67,0,1,1,5.67-5.67A5.67,5.67,0,0,1,121.78,104.38Z"/></g></g></svg>